<svg width="244" height="24" viewBox="0 0 244 24" fill="none" xmlns="http://www.w3.org/2000/svg">
<path d="M11.5 20.9998C16.7467 20.9998 21 16.7465 21 11.4998C21 6.25311 16.7467 1.99982 11.5 1.99982C6.25327 1.99982 1.99998 6.25311 1.99998 11.4998C1.99998 16.7465 6.25327 20.9998 11.5 20.9998Z" stroke="#292D32" stroke-width="1.40625" stroke-linecap="round" stroke-linejoin="round"/>
<path d="M22 21.9998L20 19.9998" stroke="#292D32" stroke-width="1.40625" stroke-linecap="round" stroke-linejoin="round"/>
<path d="M60.62 20.8116C60.28 20.9316 59.72 20.9316 59.38 20.8116C56.48 19.8216 50 15.6916 50 8.69156C50 5.60156 52.49 3.10156 55.56 3.10156C57.38 3.10156 58.99 3.98156 60 5.34156C61.01 3.98156 62.63 3.10156 64.44 3.10156C67.51 3.10156 70 5.60156 70 8.69156C70 15.6916 63.52 19.8216 60.62 20.8116Z" stroke="#292D32" stroke-width="1.5" stroke-linecap="round" stroke-linejoin="round"/>
<path d="M104.396 6.5H111.596C114.996 6.5 115.336 8.09 115.566 10.03L116.466 17.53C116.756 19.99 115.996 22 112.496 22H103.506C99.9961 22 99.2361 19.99 99.5361 17.53L100.436 10.03C100.656 8.09 100.996 6.5 104.396 6.5Z" stroke="#292D32" stroke-width="1.5" stroke-linecap="round" stroke-linejoin="round"/>
<path d="M104 8V4.5C104 3 105 2 106.5 2H109.5C111 2 112 3 112 4.5V8" stroke="#292D32" stroke-width="1.5" stroke-linecap="round" stroke-linejoin="round"/>
<path d="M116.41 17.0312H104" stroke="#292D32" stroke-width="1.5" stroke-linecap="round" stroke-linejoin="round"/>
<path d="M156.162 10.87C156.062 10.86 155.942 10.86 155.832 10.87C153.452 10.79 151.562 8.84 151.562 6.44C151.562 3.99 153.543 2 156.003 2C158.453 2 160.443 3.99 160.443 6.44C160.433 8.84 158.543 10.79 156.162 10.87Z" stroke="#292D32" stroke-width="1.5" stroke-linecap="round" stroke-linejoin="round"/>
<path d="M151.159 14.56C148.739 16.18 148.739 18.82 151.159 20.43C153.909 22.27 158.419 22.27 161.169 20.43C163.589 18.81 163.589 16.17 161.169 14.56C158.429 12.73 153.919 12.73 151.159 14.56Z" stroke="#292D32" stroke-width="1.5" stroke-linecap="round" stroke-linejoin="round"/>
<path d="M195.184 8.428V10.78H199.856V12.908H195.184V15.372H199.856V17.5H193.04V6.3H199.856V8.428H195.184ZM211.129 6.3V17.5H208.985L204.825 10.284V17.5H202.681V6.3H204.825L208.985 13.516V6.3H211.129ZM218.1 13.228V11.1H222.324V13.516C222.324 15.996 220.788 17.66 218.1 17.66C215.412 17.66 213.876 15.996 213.876 13.516V10.284C213.876 7.804 215.412 6.14 218.1 6.14C220.628 6.14 222.132 7.612 222.308 9.836H220.148C219.956 8.828 219.124 8.268 218.1 8.268C216.932 8.268 216.02 8.988 216.02 10.284V13.516C216.02 14.812 216.932 15.532 218.1 15.532C219.268 15.532 220.18 14.812 220.18 13.516V13.228H218.1Z" fill="#252020"/>
<path d="M230.721 9.9949L235.068 14.3416C235.581 14.8549 236.421 14.8549 236.935 14.3416L241.281 9.9949" stroke="#292D32" stroke-miterlimit="10" stroke-linecap="round" stroke-linejoin="round"/>
</svg>
