<svg width="84" height="20" viewBox="0 0 84 20" fill="none" xmlns="http://www.w3.org/2000/svg">
<path d="M9.58268 17.5003C13.9549 17.5003 17.4993 13.9559 17.4993 9.58366C17.4993 5.2114 13.9549 1.66699 9.58268 1.66699C5.21043 1.66699 1.66602 5.2114 1.66602 9.58366C1.66602 13.9559 5.21043 17.5003 9.58268 17.5003Z" stroke="#292D32" stroke-linecap="round" stroke-linejoin="round"/>
<path d="M18.3327 18.3337L16.666 16.667" stroke="#292D32" stroke-linecap="round" stroke-linejoin="round"/>
<path d="M42.517 17.3423C42.2337 17.4423 41.767 17.4423 41.4837 17.3423C39.067 16.5173 33.667 13.0757 33.667 7.24232C33.667 4.66732 35.742 2.58398 38.3003 2.58398C39.817 2.58398 41.1587 3.31732 42.0003 4.45065C42.842 3.31732 44.192 2.58398 45.7003 2.58398C48.2587 2.58398 50.3337 4.66732 50.3337 7.24232C50.3337 13.0757 44.9337 16.5173 42.517 17.3423Z" stroke="#292D32" stroke-width="1.25" stroke-linecap="round" stroke-linejoin="round"/>
<path d="M70.9961 5.41699H76.9961C79.8295 5.41699 80.1128 6.74199 80.3045 8.35866L81.0545 14.6087C81.2961 16.6587 80.6628 18.3337 77.7461 18.3337H70.2544C67.3294 18.3337 66.6961 16.6587 66.9461 14.6087L67.6961 8.35866C67.8795 6.74199 68.1628 5.41699 70.9961 5.41699Z" stroke="#292D32" stroke-linecap="round" stroke-linejoin="round"/>
<path d="M70.6641 6.66699V3.75033C70.6641 2.50033 71.4974 1.66699 72.7474 1.66699H75.2474C76.4974 1.66699 77.3307 2.50033 77.3307 3.75033V6.66699" stroke="#292D32" stroke-linecap="round" stroke-linejoin="round"/>
<path d="M81.0057 14.1914H70.6641" stroke="#292D32" stroke-linecap="round" stroke-linejoin="round"/>
</svg>
