<svg width="584" height="48" viewBox="0 0 584 48" fill="none" xmlns="http://www.w3.org/2000/svg">
<rect width="384" height="47" fill="white"/>
<path d="M26.826 22.812V27.132H32.604V28.5H25.44V15.9H32.604V17.268H26.826V21.444H32.604V22.812H26.826ZM38.7419 18.96C40.4699 18.96 42.3779 19.86 42.3779 22.596V28.5H41.0279V22.578C41.0279 21.03 39.9479 20.256 38.7419 20.256C37.5359 20.256 36.4559 21.03 36.4559 22.578V28.5H35.1059V19.212H36.4559V20.094C36.9239 19.338 37.8959 18.96 38.7419 18.96ZM46.7316 20.508V26.394C46.7316 26.988 46.9476 27.204 47.5956 27.204H49.0176V28.5H47.5956C45.8676 28.5 45.3816 27.87 45.3816 26.286V20.508H44.0676V19.212H45.3816V17.106H46.7316V19.212H49.0176V20.508H46.7316ZM54.4684 27.384C55.5304 27.384 56.4844 26.79 56.7004 25.584H58.0864C57.8524 27.906 56.0884 28.68 54.4684 28.68C52.7404 28.68 50.8324 27.78 50.8324 25.044V22.596C50.8324 19.86 52.7404 18.96 54.4684 18.96C56.1964 18.96 58.1044 19.86 58.1044 22.596V24.162H52.1824V25.062C52.1824 26.61 53.2624 27.384 54.4684 27.384ZM56.7544 22.92V22.578C56.7544 21.03 55.6744 20.256 54.4684 20.256C53.2624 20.256 52.1824 21.03 52.1824 22.578V22.92H56.7544ZM61.8211 19.212V20.184C62.2891 19.428 63.2611 19.05 64.1071 19.05H64.7011V20.346H64.1071C62.9011 20.346 61.8211 21.12 61.8211 22.668V28.5H60.4711V19.212H61.8211ZM77.3687 19.212L73.1567 30.858C72.9047 31.578 72.2747 31.794 71.1047 31.812H70.5827V30.516H71.2667C71.8427 30.516 71.9687 30.3 72.0767 29.976L72.5627 28.644L69.1607 19.212H70.6007L73.2647 26.754L75.9287 19.212H77.3687ZM84.4575 25.062V22.578C84.4575 21.03 83.3775 20.256 82.1715 20.256C80.9655 20.256 79.8855 21.03 79.8855 22.578V25.062C79.8855 26.61 80.9655 27.384 82.1715 27.384C83.3775 27.384 84.4575 26.61 84.4575 25.062ZM85.8075 22.596V25.044C85.8075 27.78 83.8995 28.68 82.1715 28.68C80.4435 28.68 78.5355 27.78 78.5355 25.044V22.596C78.5355 19.86 80.4435 18.96 82.1715 18.96C83.8995 18.96 85.8075 19.86 85.8075 22.596ZM91.7181 28.68C90.1881 28.68 88.1361 27.852 88.1361 25.098V19.212H89.4861V25.008C89.4861 26.664 90.6201 27.384 91.7181 27.384C92.8521 27.384 93.9501 26.592 93.9501 25.062V19.212H95.3001V28.5H93.9501V27.546C93.4821 28.284 92.5101 28.68 91.7181 28.68ZM99.3504 19.212V20.184C99.8184 19.428 100.79 19.05 101.636 19.05H102.23V20.346H101.636C100.43 20.346 99.3504 21.12 99.3504 22.668V28.5H98.0004V19.212H99.3504ZM111.316 27.384C112.378 27.384 113.332 26.79 113.548 25.584H114.934C114.7 27.906 112.936 28.68 111.316 28.68C109.588 28.68 107.68 27.78 107.68 25.044V22.596C107.68 19.86 109.588 18.96 111.316 18.96C113.044 18.96 114.952 19.86 114.952 22.596V24.162H109.03V25.062C109.03 26.61 110.11 27.384 111.316 27.384ZM113.602 22.92V22.578C113.602 21.03 112.522 20.256 111.316 20.256C110.11 20.256 109.03 21.03 109.03 22.578V22.92H113.602ZM122.179 24.036H116.959V22.866H122.179V24.036ZM137.18 28.5H135.83V22.47C135.83 21.084 134.75 20.256 133.688 20.256C132.59 20.256 131.528 21.084 131.528 22.578V28.5H130.178V22.47C130.178 21.084 129.098 20.256 128.036 20.256C126.938 20.256 125.876 21.084 125.876 22.578V28.5H124.526V19.212H125.876V20.094C126.326 19.338 127.352 18.96 128.036 18.96C129.08 18.96 130.214 19.392 130.844 20.418C131.474 19.392 132.626 18.96 133.67 18.96C135.344 18.96 137.18 19.968 137.18 22.596V28.5ZM143.024 20.256C141.962 20.256 141.008 20.85 140.792 22.056H139.406C139.64 19.734 141.404 18.96 143.024 18.96C144.752 18.96 146.66 19.86 146.66 22.596V28.5H145.31V27.546C144.716 28.32 143.672 28.68 142.412 28.68C140.828 28.68 139.334 27.834 139.334 25.926C139.334 24.99 139.73 23.73 141.35 23.262C142.412 22.956 143.744 22.848 145.31 22.74V22.578C145.31 21.03 144.23 20.256 143.024 20.256ZM145.31 25.152V23.946C143.276 24.09 142.124 24.216 141.494 24.558C140.81 24.936 140.684 25.35 140.684 25.89C140.684 26.736 141.332 27.384 142.7 27.384C144.158 27.384 145.31 26.61 145.31 25.152ZM150.591 15.9V17.646H149.241V15.9H150.591ZM150.591 19.212V28.5H149.241V19.212H150.591ZM154.598 15.9V26.394C154.598 26.988 154.814 27.204 155.462 27.204H155.75V28.5H155.462C153.734 28.5 153.248 27.87 153.248 26.286V15.9H154.598ZM158.034 28.5V26.61H159.924V28.5H158.034ZM162.991 28.5V26.61H164.881V28.5H162.991ZM167.948 28.5V26.61H169.838V28.5H167.948Z" fill="#BFC8CD"/>
<g opacity="0.3">
<rect x="400.571" y="0.571429" width="182.857" height="46.8571" rx="4.42857" fill="black"/>
<rect x="400.571" y="0.571429" width="182.857" height="46.8571" rx="4.42857" stroke="white" stroke-width="1.14286"/>
<path d="M452.184 29.18C449.286 29.18 447.738 27.434 447.54 25.094H449.502C449.772 26.498 450.744 27.272 452.22 27.272C453.516 27.272 454.344 26.642 454.344 25.67C454.344 24.734 453.822 24.158 452.562 23.852L450.33 23.312C448.674 22.916 447.738 21.584 447.738 19.784C447.738 17.354 449.574 16.22 451.806 16.22C454.344 16.22 455.802 17.66 456.108 19.766H454.146C453.894 18.74 453.048 18.128 451.824 18.128C450.33 18.128 449.7 18.83 449.7 19.784C449.7 20.756 450.294 21.26 451.122 21.458L453.282 21.98C455.28 22.466 456.306 23.672 456.306 25.706C456.306 27.74 454.812 29.18 452.184 29.18ZM465.264 24.734V16.4H467.19V24.734C467.19 27.452 465.372 29.18 462.672 29.18C459.972 29.18 458.154 27.452 458.154 24.734V16.4H460.08V24.734C460.08 26.498 461.412 27.272 462.672 27.272C463.932 27.272 465.264 26.498 465.264 24.734ZM469.689 29V16.4H474.549C477.051 16.4 478.419 17.822 478.419 20C478.419 21.062 477.987 21.98 477.177 22.556C478.257 23.204 478.725 24.248 478.725 25.364C478.725 27.596 477.375 29 474.855 29H469.689ZM474.549 18.308H471.615V21.692H474.549C475.719 21.692 476.457 21.098 476.457 20C476.457 18.902 475.719 18.308 474.549 18.308ZM474.855 23.6H471.615V27.092H474.855C476.043 27.092 476.763 26.498 476.763 25.346C476.763 24.194 476.043 23.6 474.855 23.6ZM484.651 29.18C481.753 29.18 480.205 27.434 480.007 25.094H481.969C482.239 26.498 483.211 27.272 484.687 27.272C485.983 27.272 486.811 26.642 486.811 25.67C486.811 24.734 486.289 24.158 485.029 23.852L482.797 23.312C481.141 22.916 480.205 21.584 480.205 19.784C480.205 17.354 482.041 16.22 484.273 16.22C486.811 16.22 488.269 17.66 488.575 19.766H486.613C486.361 18.74 485.515 18.128 484.291 18.128C482.797 18.128 482.167 18.83 482.167 19.784C482.167 20.756 482.761 21.26 483.589 21.458L485.749 21.98C487.747 22.466 488.773 23.672 488.773 25.706C488.773 27.74 487.279 29.18 484.651 29.18ZM499.423 25.094C499.261 27.596 497.497 29.18 494.923 29.18C492.223 29.18 490.405 27.452 490.405 24.734V20.666C490.405 17.948 492.223 16.22 494.923 16.22C497.497 16.22 499.279 17.786 499.423 20.306H497.497C497.335 18.794 496.093 18.128 494.923 18.128C493.663 18.128 492.331 18.902 492.331 20.666V24.734C492.331 26.498 493.663 27.272 494.923 27.272C496.093 27.272 497.335 26.606 497.497 25.094H499.423ZM505.411 23.582H503.449V29H501.523V16.4H506.473C508.975 16.4 510.343 17.822 510.343 20C510.343 21.854 509.353 23.15 507.517 23.492L510.757 29H508.597L505.411 23.582ZM508.381 20.018C508.381 18.92 507.643 18.308 506.473 18.308H503.449V21.728H506.473C507.643 21.728 508.381 21.116 508.381 20.018ZM514.436 16.4V29H512.51V16.4H514.436ZM517.098 29V16.4H521.958C524.46 16.4 525.828 17.822 525.828 20C525.828 21.062 525.396 21.98 524.586 22.556C525.666 23.204 526.134 24.248 526.134 25.364C526.134 27.596 524.784 29 522.264 29H517.098ZM521.958 18.308H519.024V21.692H521.958C523.128 21.692 523.866 21.098 523.866 20C523.866 18.902 523.128 18.308 521.958 18.308ZM522.264 23.6H519.024V27.092H522.264C523.452 27.092 524.172 26.498 524.172 25.346C524.172 24.194 523.452 23.6 522.264 23.6ZM530.133 18.308V21.692H535.641V23.6H530.133V27.092H535.641V29H528.207V16.4H535.641V18.308H530.133Z" fill="white"/>
</g>
</svg>
